<svg xmlns="http://www.w3.org/2000/svg" viewBox="0 0 1440 320">
  <path fill="#DFF4F1" fill-opacity="1" d="M0,288L30,256C60,224,120,160,180,160C240,160,300,224,360,250.7C420,277,480,267,540,272C600,277,660,299,720,293.3C780,288,840,256,900,218.7C960,181,1020,139,1080,144C1140,149,1200,203,1260,229.3C1320,256,1380,256,1410,256L1440,256L1440,320L1410,320C1380,320,1320,320,1260,320C1200,320,1140,320,1080,320C1020,320,960,320,900,320C840,320,780,320,720,320C660,320,600,320,540,320C480,320,420,320,360,320C300,320,240,320,180,320C120,320,60,320,30,320L0,320Z"></path>
</svg>