<?xml version="1.0" standalone="no"?><svg xmlns="http://www.w3.org/2000/svg" viewBox="0 0 1440 320"><path fill="#DFF4F1" fill-opacity="1" d="M0,160L30,149.3C60,139,120,117,180,128C240,139,300,181,360,176C420,171,480,117,540,96C600,75,660,85,720,117.3C780,149,840,203,900,192C960,181,1020,107,1080,64C1140,21,1200,11,1260,42.7C1320,75,1380,149,1410,186.7L1440,224L1440,0L1410,0C1380,0,1320,0,1260,0C1200,0,1140,0,1080,0C1020,0,960,0,900,0C840,0,780,0,720,0C660,0,600,0,540,0C480,0,420,0,360,0C300,0,240,0,180,0C120,0,60,0,30,0L0,0Z"></path></svg>