<?xml version="1.0" standalone="no"?><svg xmlns="http://www.w3.org/2000/svg" viewBox="0 0 1440 320"><path fill="#DFF4F1" fill-opacity="1" d="M0,192L20,197.3C40,203,80,213,120,208C160,203,200,181,240,149.3C280,117,320,75,360,74.7C400,75,440,117,480,117.3C520,117,560,75,600,96C640,117,680,203,720,218.7C760,235,800,181,840,176C880,171,920,213,960,202.7C1000,192,1040,128,1080,122.7C1120,117,1160,171,1200,202.7C1240,235,1280,245,1320,256C1360,267,1400,277,1420,282.7L1440,288L1440,320L1420,320C1400,320,1360,320,1320,320C1280,320,1240,320,1200,320C1160,320,1120,320,1080,320C1040,320,1000,320,960,320C920,320,880,320,840,320C800,320,760,320,720,320C680,320,640,320,600,320C560,320,520,320,480,320C440,320,400,320,360,320C320,320,280,320,240,320C200,320,160,320,120,320C80,320,40,320,20,320L0,320Z"></path></svg>